# xmcd
#
# Track frame offsets: 
#        150
#        13160
#        33335
#        49832
#        69027
#        85857
#        104287
#        124900
#        145570
#        165557
#        178435
#        191025
#
# Disc length: 2734 seconds
#
# Revision: 0
# Processed by: cddbd v1.5.2PL0 Copyright (c) Steve Scherf et al.
# Submitted via: ExactAudioCopy v0.99pb5
#
DISCID=9f0aac0c
DTITLE=Dionne Warwick - The Great Voice [ADD]
DYEAR=1999
DGENRE=Soul
TTITLE0=I'll Never Fall In Love Again
TTITLE1=You're Gonna Need Me
TTITLE2=I Think You Need Love
TTITLE3=You Are The Heart Of Me
TTITLE4=I Always Get Caught In The Rain
TTITLE5=Teardrops Bother You
TTITLE6=(I'm) Just Being Myself
TTITLE7=Come Back
TTITLE8=Don't Burn The Bridge
TTITLE9=Walk On By
TTITLE10=Don't Make Me Over
TTITLE11=Who Can I Turn To
EXTD=
EXTT0=
EXTT1=
EXTT2=
EXTT3=
EXTT4=
EXTT5=
EXTT6=
EXTT7=
EXTT8=
EXTT9=
EXTT10=
EXTT11=
PLAYORDER=
